<?xml version="1.0" encoding="utf-8"?>
<!-- Generator: Adobe Illustrator 16.0.0, SVG Export Plug-In . SVG Version: 6.00 Build 0)  -->
<!DOCTYPE svg PUBLIC "-//W3C//DTD SVG 1.1//EN" "http://www.w3.org/Graphics/SVG/1.1/DTD/svg11.dtd">
<svg version="1.1" id="Layer_1" xmlns="http://www.w3.org/2000/svg" xmlns:xlink="http://www.w3.org/1999/xlink" x="0px" y="0px"
	 width="100px" height="100px" viewBox="0 0 100 100" enable-background="new 0 0 100 100" xml:space="preserve">
<g>
	<path fill="none" d="M63.023,35.686c2.746,3.558,5.35,7.322,7.797,11.205l0.207-11.056L63.023,35.686z"/>
	<path fill="none" d="M41.649,54.586c0.621,0.826,1.226,1.674,1.857,2.482c2.641,3.387,5.199,6.379,7.655,9.039l0.211-11.34
		L41.649,54.586z"/>
	<path fill="#009ADA" d="M33.459,35.135l17.196,0.32c-3.16-3.071-6.191-5.792-9.064-8.153L33.459,35.135z"/>
	<path fill="#009ADA" d="M70.326,73.395l7.075-6.814c-2.193-2.979-4.453-5.924-6.783-8.84L70.326,73.395z"/>
	<path fill="#009ADA" d="M62.906,35.528c0.04,0.052,0.077,0.107,0.117,0.158l8.004,0.149L70.82,46.891
		c3.476,5.518,6.621,11.268,9.339,17.033l4.555-4.387l0.698-37.562l-35.773-0.667C53.874,24.907,58.36,29.658,62.906,35.528z"/>
	<path fill="#88288F" d="M51.056,71.861l-0.38,20.469l10.845-10.449C58.376,79.607,54.832,76.25,51.056,71.861z"/>
	<path fill="#88288F" d="M51.373,54.768l-0.211,11.34c5.311,5.744,10.095,9.77,13.908,11.787l0.49-26.324
		c-1.702-2.007-3.406-4.018-5.153-5.958c-1.532-1.7-3.044-3.327-4.535-4.889l-24.021-0.448c3.021,4.87,6.322,9.691,9.798,14.31
		L51.373,54.768z"/>
	<path fill="#88288F" d="M28.196,40.208L13.814,54.07l24.729,0.459c-2.893-4.711-5.505-9.54-7.758-14.272L28.196,40.208z"/>
	<path fill="#B2D235" d="M74.243,73.684c-0.227,5.93-3.717,7.092-9.173,4.211c-3.813-2.018-8.598-6.043-13.908-11.787
		c-2.456-2.66-5.015-5.652-7.655-9.039c-0.632-0.809-1.236-1.656-1.857-2.482c-3.476-4.619-6.777-9.44-9.798-14.31
		c-1.46-2.353-2.874-4.708-4.194-7.05c0.93,2.294,1.994,4.653,3.128,7.031c2.253,4.732,4.865,9.561,7.758,14.272
		c2.81,4.572,5.859,9.031,9.072,13.154c1.166,1.492,2.31,2.863,3.44,4.178c3.776,4.389,7.32,7.746,10.465,10.02
		c7.545,5.449,12.756,4.641,13.069-3.516c0.063-1.539-0.059-3.273-0.337-5.154C74.25,73.373,74.25,73.527,74.243,73.684z"/>
	<path fill="#EC1846" d="M65.561,51.57c1.719,2.029,3.396,4.088,5.058,6.17c2.33,2.916,4.59,5.861,6.783,8.84
		c2.756,3.744,5.428,7.504,7.917,11.254c0.076,0.115,0.161,0.234,0.238,0.35c-7.72-15.719-19.308-33.146-32.121-47.367
		c-6.987-7.753-13.517-13.634-19.188-17.534c-12.622-8.676-20.977-7.498-20.572,4.972c0.071,2.216,0.419,4.682,1.009,7.354
		c-0.015-0.23-0.029-0.458-0.036-0.681c-0.255-7.929,3.954-10.235,11.079-7.637c2.408,0.877,5.15,2.318,8.168,4.293
		c2.401,1.57,4.975,3.481,7.696,5.718c2.873,2.361,5.904,5.082,9.064,8.153c1.705,1.657,3.445,3.414,5.217,5.269
		c1.491,1.563,3.003,3.189,4.535,4.889C62.154,47.553,63.858,49.563,65.561,51.57z"/>
</g>
</svg>
