<?xml version="1.0" encoding="iso-8859-1"?>
<!-- Generator: Adobe Illustrator 13.0.0, SVG Export Plug-In . SVG Version: 6.00 Build 14948)  -->
<!DOCTYPE svg PUBLIC "-//W3C//DTD SVG 1.1//EN" "http://www.w3.org/Graphics/SVG/1.1/DTD/svg11.dtd">
<svg xmlns="http://www.w3.org/2000/svg" xmlns:xlink="http://www.w3.org/1999/xlink" version="1.1" id="Layer_1" x="0px" y="0px" width="100px" height="100px" viewBox="0 0 100 100" enable-background="new 0 0 100 100" xml:space="preserve">








<g>
	<path fill="#173E49" d="M58.301,41.474c-3.01-1.522-6.198-2.747-9.536-3.644c-3.417-0.919-7.013-1.514-10.736-1.713l12.437,29.409   l23.244-11.986c-2.167-2.511-4.545-4.782-7.099-6.776C64.018,44.729,61.241,42.958,58.301,41.474z M49.784,60.343   c-2.728-6.432-8.366-19.781-9.559-22.596c2.779,0.273,5.538,0.706,8.187,1.419c3.203,0.869,6.315,2.061,9.258,3.537   c0.872,0.447,1.732,0.924,2.573,1.415C57.428,49.967,53.898,55.41,49.784,60.343z"/>
	<path fill="#173E49" d="M81.907,66.187c-0.313-0.661-0.644-1.301-0.969-1.941c-0.332-0.64-0.669-1.27-1.025-1.885   c-0.342-0.618-0.699-1.224-1.072-1.828L45.883,79.588L27.755,36.517c-0.849,0.107-1.709,0.239-2.57,0.394   c-0.869,0.143-1.729,0.321-2.613,0.515c-0.888,0.199-1.771,0.413-2.667,0.651c-0.904,0.246-1.804,0.512-2.724,0.793l23.603,56.387   l42.036-27.056C82.525,67.522,82.221,66.85,81.907,66.187z M19.057,39.765c0.622-0.178,1.2-0.349,1.2-0.349l2.613-0.638   l2.558-0.512c0,0,0.756-0.111,1.47-0.214c0.524,1.237,8.152,19.356,13.397,31.833c-2.093,1.769-4.27,3.438-6.549,4.992   C27.553,60.033,19.742,41.383,19.057,39.765z"/>
	<path fill="#173E49" d="M9.013,19.362l4.183,9.972c0.333-0.096,4.825-1.288,11.058-2.951c5.892-1.561,13.159-3.497,19.875-5.284   c6.277-1.677,12.144-3.236,16.292-4.334c3.948-1.062,6.49-1.733,6.49-1.733s1.275,3.005,3.235,7.545   c1.941,4.548,4.559,10.614,7.195,16.75c2.642,6.154,5.307,12.344,7.331,17.074c2.042,4.745,3.442,8.024,3.569,8.303l5.305-3.41   L69.781,6.199L9.013,19.362z M67.824,13.66c-0.077-0.174-0.128-0.277-0.128-0.277S15.869,27.184,13.993,27.68   c-0.599-1.454-2.256-5.416-3.065-7.327C13.751,19.746,59.87,9.755,67.853,8.035c0.026,0.772,0.051,1.546,0.051,2.327   C67.903,11.472,67.879,12.566,67.824,13.66z"/>
	<path fill="#636048" d="M58.371,20.86c-1.041,0.301-1.942,0.836-2.684,1.543c-0.729,0.721-1.296,1.625-1.669,2.636   c-0.385,1.031-0.547,2.181-0.496,3.386c0.052,1.212,0.337,2.474,0.869,3.731c0.53,1.248,1.268,2.362,2.132,3.302   c0.857,0.932,1.845,1.689,2.896,2.233c1.038,0.539,2.137,0.871,3.22,0.966c1.094,0.095,2.164-0.043,3.159-0.448   c0.995-0.4,1.819-1.011,2.471-1.781c0.649-0.77,1.125-1.677,1.418-2.683c0.289-0.997,0.405-2.082,0.31-3.204   c-0.087-1.126-0.372-2.284-0.859-3.434c-0.496-1.146-1.146-2.181-1.924-3.061c-0.785-0.889-1.676-1.634-2.633-2.197   c-0.967-0.57-1.998-0.963-3.052-1.142c-0.417-0.075-0.85-0.106-1.27-0.106C59.625,20.604,58.985,20.683,58.371,20.86z    M61.294,22.078c0.88,0.146,1.749,0.471,2.58,0.968c0.85,0.491,1.619,1.142,2.296,1.914c0.104,0.121,0.184,0.255,0.283,0.381   c-0.806,4.108-1.901,8.096-3.323,11.951c-0.123,0-0.246,0-0.369-0.017c-0.908-0.076-1.804-0.35-2.709-0.813   c-0.916-0.48-1.763-1.134-2.521-1.943c-0.776-0.853-1.399-1.828-1.856-2.902c-0.463-1.074-0.716-2.168-0.767-3.259   c-0.057-1.007,0.094-1.966,0.406-2.842c0.307-0.833,0.759-1.543,1.346-2.117c0.594-0.567,1.296-0.968,2.093-1.197   c0.496-0.135,1.003-0.21,1.522-0.21C60.607,21.991,60.957,22.018,61.294,22.078z"/>
	
		<linearGradient id="SVGID_25_" gradientUnits="userSpaceOnUse" x1="-465.5581" y1="548.1426" x2="-458.8837" y2="548.1426" gradientTransform="matrix(-26.4305 -17.0928 -17.0928 26.4305 -2863.0186 -22361.5449)">
		<stop offset="0" style="stop-color:#616078"/>
		<stop offset="0.7717" style="stop-color:#17182A"/>
		<stop offset="1" style="stop-color:#17182A"/>
	</linearGradient>
	<path fill="url(#SVGID_25_)" d="M26.898,38.052c-0.714,0.103-1.47,0.214-1.47,0.214l-2.558,0.512l-2.613,0.638   c0,0-0.578,0.17-1.2,0.349c0.685,1.618,8.496,20.268,14.689,35.113c2.279-1.555,4.456-3.224,6.549-4.992   C35.051,57.408,27.422,39.289,26.898,38.052z"/>
	<path fill="#345660" d="M26.898,38.052c-0.714,0.103-1.47,0.214-1.47,0.214l-2.558,0.512l-2.613,0.638c0,0-0.578,0.17-1.2,0.349   c0.685,1.618,8.496,20.268,14.689,35.113c2.279-1.555,4.456-3.224,6.549-4.992C35.051,57.408,27.422,39.289,26.898,38.052z"/>
	
		<linearGradient id="SVGID_26_" gradientUnits="userSpaceOnUse" x1="-465.5571" y1="547.6025" x2="-458.8871" y2="547.6025" gradientTransform="matrix(-26.4305 -17.0928 -17.0928 26.4305 -2863.0186 -22361.5449)">
		<stop offset="0" style="stop-color:#616078"/>
		<stop offset="0.7717" style="stop-color:#17182A"/>
		<stop offset="1" style="stop-color:#17182A"/>
	</linearGradient>
	<path fill="url(#SVGID_26_)" d="M60.243,44.118c-0.841-0.491-1.701-0.968-2.573-1.415c-2.942-1.476-6.055-2.668-9.258-3.537   c-2.649-0.714-5.408-1.146-8.187-1.419c1.192,2.814,6.831,16.164,9.559,22.596C53.898,55.41,57.428,49.967,60.243,44.118z"/>
	<path fill="#345660" d="M60.243,44.118c-0.841-0.491-1.701-0.968-2.573-1.415c-2.942-1.476-6.055-2.668-9.258-3.537   c-2.649-0.714-5.408-1.146-8.187-1.419c1.192,2.814,6.831,16.164,9.559,22.596C53.898,55.41,57.428,49.967,60.243,44.118z"/>
	
		<linearGradient id="SVGID_27_" gradientUnits="userSpaceOnUse" x1="-465.5571" y1="546.9287" x2="-458.886" y2="546.9287" gradientTransform="matrix(-26.4305 -17.0928 -17.0928 26.4305 -2863.0186 -22361.5449)">
		<stop offset="0" style="stop-color:#616078"/>
		<stop offset="0.7717" style="stop-color:#17182A"/>
		<stop offset="1" style="stop-color:#17182A"/>
	</linearGradient>
	<path fill="url(#SVGID_27_)" d="M10.928,20.353c0.809,1.911,2.466,5.873,3.065,7.327c1.875-0.496,53.703-14.297,53.703-14.297   s0.051,0.104,0.128,0.277c0.055-1.094,0.079-2.188,0.079-3.298c0-0.781-0.024-1.554-0.051-2.327   C59.87,9.755,13.751,19.746,10.928,20.353z"/>
	<path fill="#345660" d="M10.928,20.353c0.809,1.911,2.466,5.873,3.065,7.327c1.875-0.496,53.703-14.297,53.703-14.297   s0.051,0.104,0.128,0.277c0.055-1.094,0.079-2.188,0.079-3.298c0-0.781-0.024-1.554-0.051-2.327   C59.87,9.755,13.751,19.746,10.928,20.353z"/>
	
		<linearGradient id="SVGID_28_" gradientUnits="userSpaceOnUse" x1="-600.8345" y1="489.001" x2="-594.1578" y2="489.001" gradientTransform="matrix(-1.9926 -1.9926 -1.9926 1.9926 -154.4337 -2135.3247)">
		<stop offset="0" style="stop-color:#84B54F"/>
		<stop offset="1" style="stop-color:#36502D"/>
	</linearGradient>
	<path fill="url(#SVGID_28_)" d="M56.659,23.398c-0.587,0.574-1.039,1.284-1.346,2.117c-0.312,0.876-0.463,1.835-0.406,2.842   c0.051,1.091,0.304,2.185,0.767,3.259c0.457,1.075,1.08,2.05,1.856,2.902c0.759,0.809,1.605,1.463,2.521,1.943   c0.905,0.463,1.801,0.737,2.709,0.813c0.123,0.017,0.246,0.017,0.369,0.017c1.422-3.855,2.518-7.843,3.323-11.951   c-0.1-0.126-0.18-0.261-0.283-0.381c-0.677-0.772-1.446-1.422-2.296-1.914c-0.831-0.497-1.7-0.821-2.58-0.968   c-0.337-0.06-0.687-0.087-1.02-0.087c-0.52,0-1.026,0.075-1.522,0.21C57.955,22.431,57.253,22.832,56.659,23.398z"/>
	<path fill="#777256" d="M56.659,23.398c-0.587,0.574-1.039,1.284-1.346,2.117c-0.312,0.876-0.463,1.835-0.406,2.842   c0.051,1.091,0.304,2.185,0.767,3.259c0.457,1.075,1.08,2.05,1.856,2.902c0.759,0.809,1.605,1.463,2.521,1.943   c0.905,0.463,1.801,0.737,2.709,0.813c0.123,0.017,0.246,0.017,0.369,0.017c1.422-3.855,2.518-7.843,3.323-11.951   c-0.1-0.126-0.18-0.261-0.283-0.381c-0.677-0.772-1.446-1.422-2.296-1.914c-0.831-0.497-1.7-0.821-2.58-0.968   c-0.337-0.06-0.687-0.087-1.02-0.087c-0.52,0-1.026,0.075-1.522,0.21C57.955,22.431,57.253,22.832,56.659,23.398z"/>
</g>
</svg>
