<?xml version="1.0" encoding="utf-8"?>
<!-- Generator: Adobe Illustrator 18.1.0, SVG Export Plug-In . SVG Version: 6.00 Build 0)  -->
<svg version="1.1" id="Layer_1" xmlns="http://www.w3.org/2000/svg" xmlns:xlink="http://www.w3.org/1999/xlink" x="0px" y="0px"
	 viewBox="0 0 150 150" enable-background="new 0 0 150 150" xml:space="preserve">
<g>
	<radialGradient id="SVGID_1_" cx="73.8752" cy="106.1622" r="81.6093" gradientUnits="userSpaceOnUse">
		<stop  offset="0.2528" style="stop-color:#F10F83"/>
		<stop  offset="1" style="stop-color:#00A9DE"/>
	</radialGradient>
	<path fill="url(#SVGID_1_)" d="M72.8,134.1c1.6-0.1,3.2-0.2,4.8-0.5c-1.7,0.2-3.3,0.3-4.9,0.4C72.7,134,72.7,134,72.8,134.1z"/>
	<radialGradient id="SVGID_2_" cx="73.8756" cy="106.1529" r="81.6364" gradientUnits="userSpaceOnUse">
		<stop  offset="0.2528" style="stop-color:#F10F83"/>
		<stop  offset="1" style="stop-color:#00A9DE"/>
	</radialGradient>
	<path fill="url(#SVGID_2_)" d="M73.9,134.5c1.2-0.2,2.4-0.5,3.6-0.9c-1.5,0.3-3.1,0.5-4.6,0.5C73.2,134.3,73.6,134.4,73.9,134.5z"
		/>
	<radialGradient id="SVGID_3_" cx="73.8766" cy="106.1571" r="81.6239" gradientUnits="userSpaceOnUse">
		<stop  offset="0.2528" style="stop-color:#F10F83"/>
		<stop  offset="1" style="stop-color:#00A9DE"/>
	</radialGradient>
	<path fill="url(#SVGID_3_)" d="M75.5,134.7c0.7-0.3,1.4-0.7,2.1-1.1c-1.1,0.4-2.2,0.7-3.3,0.9C74.6,134.6,75,134.7,75.5,134.7z"/>
	<radialGradient id="SVGID_4_" cx="73.874" cy="106.171" r="81.5839" gradientUnits="userSpaceOnUse">
		<stop  offset="0.2528" style="stop-color:#F10F83"/>
		<stop  offset="1" style="stop-color:#00A9DE"/>
	</radialGradient>
	<path fill="url(#SVGID_4_)" d="M77.3,134.8c0.1-0.3,0.2-0.7,0.3-1.2c-0.6,0.5-1.1,0.9-1.7,1.2C76.3,134.8,76.8,134.8,77.3,134.8z"
		/>
	<radialGradient id="SVGID_5_" cx="73.8773" cy="106.1629" r="81.6045" gradientUnits="userSpaceOnUse">
		<stop  offset="0.2528" style="stop-color:#F10F83"/>
		<stop  offset="1" style="stop-color:#00A9DE"/>
	</radialGradient>
	<path fill="url(#SVGID_5_)" d="M79.1,134.8c-0.5-0.3-1-0.7-1.6-1.2c0,0.5,0.1,0.9,0.1,1.2C78.1,134.8,78.6,134.8,79.1,134.8z"/>
	<radialGradient id="SVGID_6_" cx="73.8768" cy="106.1685" r="81.5896" gradientUnits="userSpaceOnUse">
		<stop  offset="0.2528" style="stop-color:#F10F83"/>
		<stop  offset="1" style="stop-color:#00A9DE"/>
	</radialGradient>
	<path fill="url(#SVGID_6_)" d="M79.5,134.8c0.2,0,0.3,0,0.5-0.1c0.3,0,0.6-0.1,0.9-0.1c-1.1-0.2-2.2-0.5-3.3-0.9
		C78.2,134.1,78.8,134.5,79.5,134.8z"/>
	<radialGradient id="SVGID_7_" cx="73.8761" cy="106.1414" r="81.664" gradientUnits="userSpaceOnUse">
		<stop  offset="0.2528" style="stop-color:#F10F83"/>
		<stop  offset="1" style="stop-color:#00A9DE"/>
	</radialGradient>
	<path fill="url(#SVGID_7_)" d="M82.1,134.2c-1.5-0.1-3-0.3-4.6-0.6c1.2,0.4,2.4,0.7,3.6,0.9C81.5,134.4,81.8,134.3,82.1,134.2z"/>
	<radialGradient id="SVGID_8_" cx="73.8756" cy="106.1757" r="81.5715" gradientUnits="userSpaceOnUse">
		<stop  offset="0.2528" style="stop-color:#F10F83"/>
		<stop  offset="1" style="stop-color:#00A9DE"/>
	</radialGradient>
	<path fill="url(#SVGID_8_)" d="M82.9,133.7c-1.8,0.1-3.5,0-5.3-0.1c1.6,0.3,3.2,0.4,4.8,0.5C82.5,134,82.7,133.9,82.9,133.7z"/>
	<radialGradient id="SVGID_9_" cx="73.8748" cy="106.1219" r="81.7178" gradientUnits="userSpaceOnUse">
		<stop  offset="0.2528" style="stop-color:#F10F83"/>
		<stop  offset="1" style="stop-color:#00A9DE"/>
	</radialGradient>
	<path fill="url(#SVGID_9_)" d="M82.9,133.6c0.1-0.1,0.1-0.3,0.1-0.4c-1.8,0.2-3.6,0.4-5.5,0.4C79.4,133.7,81.2,133.7,82.9,133.6z"
		/>
	<radialGradient id="SVGID_10_" cx="73.8747" cy="106.1799" r="81.5622" gradientUnits="userSpaceOnUse">
		<stop  offset="0.2528" style="stop-color:#F10F83"/>
		<stop  offset="1" style="stop-color:#00A9DE"/>
	</radialGradient>
	<path fill="url(#SVGID_10_)" d="M82.6,132.7c-1.7,0.4-3.3,0.7-5,0.9c1.8-0.1,3.7-0.2,5.4-0.5C82.9,133,82.8,132.8,82.6,132.7z"/>
	<radialGradient id="SVGID_11_" cx="73.8749" cy="106.1663" r="81.5992" gradientUnits="userSpaceOnUse">
		<stop  offset="0.2528" style="stop-color:#F10F83"/>
		<stop  offset="1" style="stop-color:#00A9DE"/>
	</radialGradient>
	<path fill="url(#SVGID_11_)" d="M81.5,132.3c-1.3,0.5-2.6,1-3.9,1.3c1.6-0.2,3.2-0.6,4.8-1C82.1,132.5,81.8,132.4,81.5,132.3z"/>
	<radialGradient id="SVGID_12_" cx="73.8769" cy="106.1614" r="81.6084" gradientUnits="userSpaceOnUse">
		<stop  offset="0.2528" style="stop-color:#F10F83"/>
		<stop  offset="1" style="stop-color:#00A9DE"/>
	</radialGradient>
	<path fill="url(#SVGID_12_)" d="M80,132c-0.8,0.6-1.6,1.2-2.5,1.6c1.2-0.4,2.5-0.9,3.7-1.4C80.8,132.1,80.4,132,80,132z"/>
	<radialGradient id="SVGID_13_" cx="73.8755" cy="106.1658" r="81.5982" gradientUnits="userSpaceOnUse">
		<stop  offset="0.2528" style="stop-color:#F10F83"/>
		<stop  offset="1" style="stop-color:#00A9DE"/>
	</radialGradient>
	<path fill="url(#SVGID_13_)" d="M78.3,131.8c-0.2,0.7-0.5,1.3-0.7,1.8c0.7-0.5,1.4-1,2.1-1.7C79.2,131.9,78.7,131.8,78.3,131.8z"/>
	<radialGradient id="SVGID_14_" cx="73.8751" cy="106.1685" r="81.5913" gradientUnits="userSpaceOnUse">
		<stop  offset="0.2528" style="stop-color:#F10F83"/>
		<stop  offset="1" style="stop-color:#00A9DE"/>
	</radialGradient>
	<path fill="url(#SVGID_14_)" d="M76.4,131.8c0.4,0.7,0.7,1.3,1.1,1.8c0.1-0.5,0.2-1.1,0.3-1.8C77.4,131.8,76.9,131.8,76.4,131.8z"
		/>
	<radialGradient id="SVGID_15_" cx="73.8763" cy="106.1489" r="81.6466" gradientUnits="userSpaceOnUse">
		<stop  offset="0.2528" style="stop-color:#F10F83"/>
		<stop  offset="1" style="stop-color:#00A9DE"/>
	</radialGradient>
	<path fill="url(#SVGID_15_)" d="M75.1,131.9c-0.2,0-0.3,0-0.5,0.1c1,0.6,1.9,1.2,2.9,1.6c-0.5-0.5-1-1.1-1.5-1.8
		C75.7,131.9,75.4,131.9,75.1,131.9z"/>
	<radialGradient id="SVGID_16_" cx="73.8751" cy="106.152" r="81.638" gradientUnits="userSpaceOnUse">
		<stop  offset="0.2528" style="stop-color:#F10F83"/>
		<stop  offset="1" style="stop-color:#00A9DE"/>
	</radialGradient>
	<path fill="url(#SVGID_16_)" d="M72.4,132.8c1.7,0.4,3.4,0.6,5.2,0.8c-1.5-0.3-3-0.7-4.5-1.2C72.8,132.5,72.5,132.7,72.4,132.8z"/>
	<radialGradient id="SVGID_17_" cx="73.8746" cy="106.1868" r="81.538" gradientUnits="userSpaceOnUse">
		<stop  offset="0.2528" style="stop-color:#F10F83"/>
		<stop  offset="1" style="stop-color:#00A9DE"/>
	</radialGradient>
	<path fill="url(#SVGID_17_)" d="M72.3,133.8c1.7,0,3.5,0,5.2-0.2c-1.8,0-3.7,0-5.5-0.2C72.1,133.5,72.2,133.7,72.3,133.8z"/>
	<radialGradient id="SVGID_18_" cx="73.8773" cy="106.1606" r="81.6135" gradientUnits="userSpaceOnUse">
		<stop  offset="0.2528" style="stop-color:#F10F83"/>
		<stop  offset="1" style="stop-color:#00A9DE"/>
	</radialGradient>
	<path fill="url(#SVGID_18_)" d="M68.9,133.9c-3.4-0.3-6.6-0.9-9.7-2c0.2,0.1,0.3,0.2,0.5,0.3c3,1,6.2,1.7,9.4,1.9
		C69.1,134,69,133.9,68.9,133.9z"/>
	<radialGradient id="SVGID_19_" cx="73.876" cy="106.1703" r="81.5865" gradientUnits="userSpaceOnUse">
		<stop  offset="0.2528" style="stop-color:#F10F83"/>
		<stop  offset="1" style="stop-color:#00A9DE"/>
	</radialGradient>
	<path fill="url(#SVGID_19_)" d="M69.5,134.2c-3.1-0.1-6.2-0.7-9-1.7c0.4,0.2,0.9,0.4,1.4,0.5c0.6,0.2,1.5,0.5,2.1,0.7
		c0.5,0.1,1.2,0.3,1.8,0.5c1.8,0.4,3.6,0.6,5.4,0.6C70.6,134.6,70,134.4,69.5,134.2z"/>
	<radialGradient id="SVGID_20_" cx="73.8761" cy="106.1702" r="81.5868" gradientUnits="userSpaceOnUse">
		<stop  offset="0.2528" style="stop-color:#F10F83"/>
		<stop  offset="1" style="stop-color:#00A9DE"/>
	</radialGradient>
	<path fill="url(#SVGID_20_)" d="M71.7,134.8c-1.5,0.1-3,0-4.4-0.3l0.2,0c1,0.2,1.1,0.2,2.8,0.5c0.5,0.1,1.1,0.1,1.6,0.2
		c0.6,0.1,1.3,0.1,2-0.1C73.2,135.1,72.4,135,71.7,134.8z"/>
	<radialGradient id="SVGID_21_" cx="73.8761" cy="106.0725" r="81.855" gradientUnits="userSpaceOnUse">
		<stop  offset="0.2528" style="stop-color:#F10F83"/>
		<stop  offset="1" style="stop-color:#00A9DE"/>
	</radialGradient>
	<path fill="url(#SVGID_21_)" d="M73.1,135.4c0.6,0.1,1.4,0.1,2,0.1c0.5,0,1.2,0,1.7,0.1c0.1,0,0.1-0.1,0.2-0.2
		c-0.8,0-1.7-0.1-2.5-0.1C74.1,135.4,73.6,135.4,73.1,135.4z"/>
	<radialGradient id="SVGID_22_" cx="73.8777" cy="106.191" r="81.539" gradientUnits="userSpaceOnUse">
		<stop  offset="0.2528" style="stop-color:#F10F83"/>
		<stop  offset="1" style="stop-color:#00A9DE"/>
	</radialGradient>
	<path fill="url(#SVGID_22_)" d="M83.3,134.9c-0.5,0.1-1,0.2-1.5,0.2c-0.3,0-0.6,0.1-0.9,0.1c0.6,0.1,1.2,0.2,1.8,0.1
		c0.5,0,1.1-0.1,1.5-0.2c1.5-0.2,1.7-0.3,3.5-0.6C86.4,134.9,84.8,135,83.3,134.9z"/>
	<radialGradient id="SVGID_23_" cx="73.874" cy="106.1607" r="81.614" gradientUnits="userSpaceOnUse">
		<stop  offset="0.2528" style="stop-color:#F10F83"/>
		<stop  offset="1" style="stop-color:#00A9DE"/>
	</radialGradient>
	<path fill="url(#SVGID_23_)" d="M83.8,134.8c1.9,0.1,3.7-0.1,5.5-0.6c0.6-0.1,1.3-0.3,1.9-0.5c0.6-0.2,1.4-0.4,2-0.6
		c0.5-0.2,0.9-0.3,1.3-0.5c-2.9,1-5.9,1.5-9,1.6C85,134.4,84.5,134.6,83.8,134.8z"/>
	<radialGradient id="SVGID_24_" cx="73.8781" cy="106.1516" r="81.6233" gradientUnits="userSpaceOnUse">
		<stop  offset="0.2528" style="stop-color:#F10F83"/>
		<stop  offset="1" style="stop-color:#00A9DE"/>
	</radialGradient>
	<path fill="url(#SVGID_24_)" d="M85.9,134.1c3.2-0.2,6.4-0.8,9.4-1.8c0.9-0.4,1.6-0.9,2.1-1.4c-3.3,1.2-6.8,2.1-10.5,2.5
		C86.6,133.7,86.3,133.9,85.9,134.1z"/>
	<radialGradient id="SVGID_25_" cx="73.8799" cy="106.1619" r="81.6021" gradientUnits="userSpaceOnUse">
		<stop  offset="0.2528" style="stop-color:#F10F83"/>
		<stop  offset="1" style="stop-color:#00A9DE"/>
	</radialGradient>
	<path fill="url(#SVGID_25_)" d="M87.2,132.5c0.1,0.2,0,0.5-0.2,0.7c3.7-0.5,7.2-1.4,10.6-2.7c0.3-0.5,0.5-1,0.3-1.5
		C94.5,130.6,90.9,131.8,87.2,132.5z"/>
	<radialGradient id="SVGID_26_" cx="73.8744" cy="106.1637" r="81.607" gradientUnits="userSpaceOnUse">
		<stop  offset="0.2528" style="stop-color:#F10F83"/>
		<stop  offset="1" style="stop-color:#00A9DE"/>
	</radialGradient>
	<path fill="url(#SVGID_26_)" d="M87.1,132.4c3.7-0.8,7.3-2.1,10.7-3.7c-0.3-0.5-0.8-1-1.5-1.5c-3.2,1.9-6.5,3.4-9.9,4.5
		C86.7,131.9,87,132.1,87.1,132.4z"/>
	<radialGradient id="SVGID_27_" cx="73.8742" cy="106.1616" r="81.6102" gradientUnits="userSpaceOnUse">
		<stop  offset="0.2528" style="stop-color:#F10F83"/>
		<stop  offset="1" style="stop-color:#00A9DE"/>
	</radialGradient>
	<path fill="url(#SVGID_27_)" d="M95.5,126.7c-0.9-0.5-2-0.9-3.3-1.3c-2.5,2.2-5.1,4-7.8,5.4c0.6,0.2,1.1,0.4,1.6,0.6
		C89.3,130.2,92.5,128.7,95.5,126.7z"/>
	<radialGradient id="SVGID_28_" cx="73.876" cy="106.1646" r="81.6016" gradientUnits="userSpaceOnUse">
		<stop  offset="0.2528" style="stop-color:#F10F83"/>
		<stop  offset="1" style="stop-color:#00A9DE"/>
	</radialGradient>
	<path fill="url(#SVGID_28_)" d="M91.2,125.2c-1.4-0.3-2.9-0.6-4.5-0.8c-1.5,2.4-3.2,4.4-4.9,6c0.8,0.1,1.5,0.2,2.1,0.4
		C86.5,129.2,88.9,127.4,91.2,125.2z"/>
	<radialGradient id="SVGID_29_" cx="73.878" cy="106.1657" r="81.5933" gradientUnits="userSpaceOnUse">
		<stop  offset="0.2528" style="stop-color:#F10F83"/>
		<stop  offset="1" style="stop-color:#00A9DE"/>
	</radialGradient>
	<path fill="url(#SVGID_29_)" d="M85.4,124.2c-1.6-0.2-3.4-0.3-5.2-0.4c-0.5,2.5-0.9,4.6-1.4,6.3c0.8,0,1.7,0.1,2.4,0.2
		C82.7,128.6,84.1,126.5,85.4,124.2z"/>
	<radialGradient id="SVGID_30_" cx="73.8753" cy="106.1604" r="81.6146" gradientUnits="userSpaceOnUse">
		<stop  offset="0.2528" style="stop-color:#F10F83"/>
		<stop  offset="1" style="stop-color:#00A9DE"/>
	</radialGradient>
	<path fill="url(#SVGID_30_)" d="M78.2,130c0.2-1.7,0.5-3.9,0.7-6.3c-1.8,0-3.6,0-5.4,0.1c0.7,2.4,1.4,4.5,2.2,6.3
		C76.5,130,77.3,130,78.2,130z"/>
	<radialGradient id="SVGID_31_" cx="73.8757" cy="106.1591" r="81.6211" gradientUnits="userSpaceOnUse">
		<stop  offset="0.2528" style="stop-color:#F10F83"/>
		<stop  offset="1" style="stop-color:#00A9DE"/>
	</radialGradient>
	<path fill="url(#SVGID_31_)" d="M73.3,130.3c0.5-0.1,1.1-0.1,1.6-0.2c-1-1.7-2-3.8-2.9-6.2c-1.2,0.1-2.3,0.2-3.5,0.4
		c-0.6,0.1-1.2,0.2-1.7,0.3c1.8,2.3,3.7,4.3,5.7,5.9C72.8,130.4,73,130.3,73.3,130.3z"/>
	<radialGradient id="SVGID_32_" cx="73.8759" cy="106.1671" r="81.591" gradientUnits="userSpaceOnUse">
		<stop  offset="0.2528" style="stop-color:#F10F83"/>
		<stop  offset="1" style="stop-color:#00A9DE"/>
	</radialGradient>
	<path fill="url(#SVGID_32_)" d="M68.5,131.8c0.3-0.2,0.7-0.4,1.2-0.6c-3.1-1.3-6.1-3-8.9-5.1c-1,0.4-1.8,0.9-2.5,1.3
		C61.5,129.3,64.9,130.7,68.5,131.8z"/>
	<radialGradient id="SVGID_33_" cx="73.8741" cy="106.1586" r="81.621" gradientUnits="userSpaceOnUse">
		<stop  offset="0.2528" style="stop-color:#F10F83"/>
		<stop  offset="1" style="stop-color:#00A9DE"/>
	</radialGradient>
	<path fill="url(#SVGID_33_)" d="M68.3,132c-3.6-1-7.1-2.4-10.4-4.2c-0.5,0.5-0.8,1-0.8,1.5c3.5,1.5,7.1,2.7,10.8,3.4
		C67.9,132.4,68,132.2,68.3,132z"/>
	<radialGradient id="SVGID_34_" cx="73.8742" cy="106.16" r="81.6137" gradientUnits="userSpaceOnUse">
		<stop  offset="0.2528" style="stop-color:#F10F83"/>
		<stop  offset="1" style="stop-color:#00A9DE"/>
	</radialGradient>
	<path fill="url(#SVGID_34_)" d="M67.9,132.8c-3.7-0.7-7.4-1.7-10.8-3.2c0.1,0.5,0.4,1,1,1.5c3.3,1.2,6.7,2,10.3,2.4
		C68.1,133.3,68,133.1,67.9,132.8z"/>
	<radialGradient id="SVGID_35_" cx="73.8763" cy="106.1632" r="81.6051" gradientUnits="userSpaceOnUse">
		<stop  offset="0.2528" style="stop-color:#F10F83"/>
		<stop  offset="1" style="stop-color:#00A9DE"/>
	</radialGradient>
	<path fill="url(#SVGID_35_)" d="M68.7,133.7c-3.5-0.3-6.8-1-10-2.2c0.1,0.1,0.3,0.2,0.5,0.3c3.1,1.1,6.4,1.8,9.7,2
		C68.8,133.8,68.7,133.8,68.7,133.7z"/>
	<radialGradient id="SVGID_36_" cx="73.8735" cy="106.1591" r="81.6173" gradientUnits="userSpaceOnUse">
		<stop  offset="0.2528" style="stop-color:#F10F83"/>
		<stop  offset="1" style="stop-color:#00A9DE"/>
	</radialGradient>
	<path fill="url(#SVGID_36_)" d="M98.5,131c0.2-0.1,0.4-0.2,0.6-0.3l1.3-0.7c1.5-0.8,1.7-0.9,3.9-2.2c1.4-0.9,1.4-0.9,3.6-2.5
		l1.4-1.1c0.2-0.2,0.4-0.3,0.6-0.5c-2.8,2.3-5.8,4.2-9,5.8C100.3,130,99.5,130.5,98.5,131z"/>
	<radialGradient id="SVGID_37_" cx="73.8717" cy="106.1649" r="81.6106" gradientUnits="userSpaceOnUse">
		<stop  offset="0.2528" style="stop-color:#F10F83"/>
		<stop  offset="1" style="stop-color:#00A9DE"/>
	</radialGradient>
	<path fill="url(#SVGID_37_)" d="M101.7,127.2c0.1,0.6,0,1.2-0.4,1.8c3.3-1.6,6.3-3.6,9.1-5.9c0.6-0.8,0.8-1.6,0.6-2.4
		C108.1,123.1,105,125.3,101.7,127.2z"/>
	<radialGradient id="SVGID_38_" cx="73.8753" cy="106.1604" r="81.6099" gradientUnits="userSpaceOnUse">
		<stop  offset="0.2528" style="stop-color:#F10F83"/>
		<stop  offset="1" style="stop-color:#00A9DE"/>
	</radialGradient>
	<path fill="url(#SVGID_38_)" d="M101.5,126.7c3.3-1.9,6.4-4.2,9.2-6.8c-0.4-0.8-1.2-1.6-2.5-2.4c-2.6,2.8-5.5,5.3-8.5,7.5
		C100.6,125.5,101.2,126.1,101.5,126.7z"/>
	<radialGradient id="SVGID_39_" cx="73.8773" cy="106.1629" r="81.6051" gradientUnits="userSpaceOnUse">
		<stop  offset="0.2528" style="stop-color:#F10F83"/>
		<stop  offset="1" style="stop-color:#00A9DE"/>
	</radialGradient>
	<path fill="url(#SVGID_39_)" d="M107,116.7c-1.5-0.8-3.3-1.4-5.4-2c-2.1,3.1-4.3,5.8-6.7,8.3c1.5,0.4,2.8,0.9,3.9,1.5
		C101.7,122.2,104.4,119.6,107,116.7z"/>
	<radialGradient id="SVGID_40_" cx="73.876" cy="106.1607" r="81.6082" gradientUnits="userSpaceOnUse">
		<stop  offset="0.2528" style="stop-color:#F10F83"/>
		<stop  offset="1" style="stop-color:#00A9DE"/>
	</radialGradient>
	<path fill="url(#SVGID_40_)" d="M88.4,121.6c1.9,0.3,3.7,0.6,5.3,1c2.2-2.5,4.3-5.3,6.2-8.4c-2.2-0.6-4.7-1-7.3-1.4
		C91.3,116.1,89.9,119,88.4,121.6z"/>
	<radialGradient id="SVGID_41_" cx="73.8763" cy="106.1634" r="81.6032" gradientUnits="userSpaceOnUse">
		<stop  offset="0.2528" style="stop-color:#F10F83"/>
		<stop  offset="1" style="stop-color:#00A9DE"/>
	</radialGradient>
	<path fill="url(#SVGID_41_)" d="M80.8,120.9c2.1,0.1,4.1,0.2,6.1,0.5c1.3-2.6,2.5-5.6,3.6-8.8c-2.7-0.3-5.5-0.5-8.4-0.6
		C81.6,115.2,81.2,118.2,80.8,120.9z"/>
	<radialGradient id="SVGID_42_" cx="73.875" cy="106.1622" r="81.605" gradientUnits="userSpaceOnUse">
		<stop  offset="0.2528" style="stop-color:#F10F83"/>
		<stop  offset="1" style="stop-color:#00A9DE"/>
	</radialGradient>
	<path fill="url(#SVGID_42_)" d="M60,113.2c1.5,3.2,3.1,6.1,4.9,8.7c0.7-0.1,1.3-0.2,2-0.3c1.3-0.2,2.7-0.3,4.1-0.4
		c-0.9-2.7-1.7-5.7-2.5-9c-1.9,0.1-3.8,0.3-5.7,0.6C61.8,112.9,60.9,113,60,113.2z"/>
	<radialGradient id="SVGID_43_" cx="73.8746" cy="106.1635" r="81.6028" gradientUnits="userSpaceOnUse">
		<stop  offset="0.2528" style="stop-color:#F10F83"/>
		<stop  offset="1" style="stop-color:#00A9DE"/>
	</radialGradient>
	<path fill="url(#SVGID_43_)" d="M50.1,115.8c-1.7,0.7-3,1.4-4,2.2c2.7,2.8,5.6,5.3,8.7,7.3c0.7-0.5,1.7-1.1,2.9-1.6
		C55,121.4,52.4,118.8,50.1,115.8z"/>
	<radialGradient id="SVGID_44_" cx="73.8741" cy="106.1605" r="81.6105" gradientUnits="userSpaceOnUse">
		<stop  offset="0.2528" style="stop-color:#F10F83"/>
		<stop  offset="1" style="stop-color:#00A9DE"/>
	</radialGradient>
	<path fill="url(#SVGID_44_)" d="M54.3,125.7c-3.2-2-6.2-4.4-8.9-7.2c-0.8,0.8-1.2,1.6-1.3,2.4c2.9,2.5,6,4.7,9.3,6.5
		C53.4,126.9,53.7,126.3,54.3,125.7z"/>
	<radialGradient id="SVGID_45_" cx="73.8777" cy="106.1587" r="81.6197" gradientUnits="userSpaceOnUse">
		<stop  offset="0.2528" style="stop-color:#F10F83"/>
		<stop  offset="1" style="stop-color:#00A9DE"/>
	</radialGradient>
	<path fill="url(#SVGID_45_)" d="M53.4,127.9c-3.3-1.7-6.4-3.9-9.3-6.3c0.2,0.8,0.7,1.6,1.7,2.4l0.3,0.3c2.6,2.2,5.5,4,8.5,5.4
		C53.9,129.1,53.5,128.5,53.4,127.9z"/>
	<radialGradient id="SVGID_46_" cx="73.8664" cy="106.1623" r="81.6239" gradientUnits="userSpaceOnUse">
		<stop  offset="0.2528" style="stop-color:#F10F83"/>
		<stop  offset="1" style="stop-color:#00A9DE"/>
	</radialGradient>
	<path fill="url(#SVGID_46_)" d="M114,117.6c0.2,0.9,0,1.8-0.6,2.7c1.8-1.8,3.4-3.7,4.8-5.7c0.4-0.5,0.8-1.2,1.2-1.7l1-1.5
		c0.5-0.9,0.7-1.9,0.5-2.8C118.9,111.8,116.6,114.8,114,117.6z"/>
	<radialGradient id="SVGID_47_" cx="73.8787" cy="106.1618" r="81.6015" gradientUnits="userSpaceOnUse">
		<stop  offset="0.2528" style="stop-color:#F10F83"/>
		<stop  offset="1" style="stop-color:#00A9DE"/>
	</radialGradient>
	<path fill="url(#SVGID_47_)" d="M120.5,107.8c-0.5-1.1-1.6-2.1-3.2-3.2c-1.7,3.4-3.8,6.6-6.2,9.7c1.4,0.9,2.3,1.8,2.7,2.7
		C116.4,114.1,118.6,111,120.5,107.8z"/>
	<radialGradient id="SVGID_48_" cx="73.8764" cy="106.1623" r="81.6059" gradientUnits="userSpaceOnUse">
		<stop  offset="0.2528" style="stop-color:#F10F83"/>
		<stop  offset="1" style="stop-color:#00A9DE"/>
	</radialGradient>
	<path fill="url(#SVGID_48_)" d="M108.6,101c-1.3,3.5-3,7-4.9,10.2c2.3,0.7,4.3,1.4,5.9,2.2c2.3-3.1,4.3-6.4,6-9.8
		C113.7,102.7,111.3,101.8,108.6,101z"/>
	<radialGradient id="SVGID_49_" cx="73.8737" cy="106.1619" r="81.6128" gradientUnits="userSpaceOnUse">
		<stop  offset="0.2528" style="stop-color:#F10F83"/>
		<stop  offset="1" style="stop-color:#00A9DE"/>
	</radialGradient>
	<path fill="url(#SVGID_49_)" d="M93.9,109.2c2.9,0.4,5.5,0.9,7.9,1.5c1.8-3.3,3.3-6.7,4.5-10.3c-2.9-0.7-6-1.3-9.4-1.8
		C96.1,102.3,95.1,105.8,93.9,109.2z"/>
	<radialGradient id="SVGID_50_" cx="73.8779" cy="106.163" r="81.5946" gradientUnits="userSpaceOnUse">
		<stop  offset="0.2528" style="stop-color:#F10F83"/>
		<stop  offset="1" style="stop-color:#00A9DE"/>
	</radialGradient>
	<path fill="url(#SVGID_50_)" d="M82.4,108.2c3.2,0.1,6.3,0.4,9.2,0.7c1-3.4,1.9-7,2.6-10.6c-3.5-0.4-7.2-0.7-10.9-0.8
		C83.1,101.1,82.8,104.7,82.4,108.2z"/>
	<radialGradient id="SVGID_51_" cx="73.8759" cy="106.1627" r="81.5999" gradientUnits="userSpaceOnUse">
		<stop  offset="0.2528" style="stop-color:#F10F83"/>
		<stop  offset="1" style="stop-color:#00A9DE"/>
	</radialGradient>
	<path fill="url(#SVGID_51_)" d="M68.9,97.5c0.4,3.7,0.8,7.3,1.4,10.8c3.2-0.2,6.5-0.2,9.7-0.2c0.2-3.5,0.3-7.1,0.4-10.8
		C76.5,97.3,72.7,97.3,68.9,97.5z"/>
	<radialGradient id="SVGID_52_" cx="73.8758" cy="106.1625" r="81.6113" gradientUnits="userSpaceOnUse">
		<stop  offset="0.2528" style="stop-color:#F10F83"/>
		<stop  offset="1" style="stop-color:#00A9DE"/>
	</radialGradient>
	<path fill="url(#SVGID_52_)" d="M58.5,98.5c-1.3,0.2-2.5,0.4-3.7,0.6c1,3.6,2.2,7.2,3.5,10.5c1-0.2,2-0.3,3.1-0.5
		c2-0.3,4.1-0.5,6.2-0.6c-0.7-3.4-1.3-7-1.8-10.7C63.4,97.9,60.9,98.2,58.5,98.5z"/>
	<radialGradient id="SVGID_53_" cx="73.8738" cy="106.1625" r="81.6038" gradientUnits="userSpaceOnUse">
		<stop  offset="0.2528" style="stop-color:#F10F83"/>
		<stop  offset="1" style="stop-color:#00A9DE"/>
	</radialGradient>
	<path fill="url(#SVGID_53_)" d="M49.1,111.9c2-0.7,4.4-1.3,7.1-1.9c-1.5-3.3-2.9-6.8-4-10.4c-3.2,0.6-6,1.4-8.4,2.2
		C45.3,105.3,47.1,108.6,49.1,111.9z"/>
	<radialGradient id="SVGID_54_" cx="73.8766" cy="106.163" r="81.6103" gradientUnits="userSpaceOnUse">
		<stop  offset="0.2528" style="stop-color:#F10F83"/>
		<stop  offset="1" style="stop-color:#00A9DE"/>
	</radialGradient>
	<path fill="url(#SVGID_54_)" d="M42,102.4c-2.2,0.9-3.9,1.8-5.2,2.8c1.8,3.4,3.9,6.6,6.4,9.6c1.1-0.8,2.5-1.6,4.4-2.4
		C45.4,109.3,43.6,105.9,42,102.4z"/>
	<radialGradient id="SVGID_55_" cx="73.874" cy="106.1618" r="81.6054" gradientUnits="userSpaceOnUse">
		<stop  offset="0.2528" style="stop-color:#F10F83"/>
		<stop  offset="1" style="stop-color:#00A9DE"/>
	</radialGradient>
	<path fill="url(#SVGID_55_)" d="M41.1,118.1c0-0.9,0.5-1.8,1.4-2.6c-2.5-2.9-4.7-6.1-6.5-9.4c-1,1-1.6,2.1-1.6,3.1
		C36.2,112.3,38.4,115.3,41.1,118.1z"/>
	<radialGradient id="SVGID_56_" cx="73.8451" cy="106.1616" r="81.6583" gradientUnits="userSpaceOnUse">
		<stop  offset="0.2528" style="stop-color:#F10F83"/>
		<stop  offset="1" style="stop-color:#00A9DE"/>
	</radialGradient>
	<path fill="url(#SVGID_56_)" d="M122.7,105c0.2,0.8,0.1,1.7-0.3,2.5l0.8-1.8c0.6-1.3,0.6-1.3,1.5-3.8c0.4-1.3,0.4-1.3,1.2-3.9
		l0.4-1.8c0.1-0.6,0.1-1.1,0-1.7C125.5,98.2,124.3,101.7,122.7,105z"/>
	<radialGradient id="SVGID_57_" cx="73.8667" cy="106.1624" r="81.6236" gradientUnits="userSpaceOnUse">
		<stop  offset="0.2528" style="stop-color:#F10F83"/>
		<stop  offset="1" style="stop-color:#00A9DE"/>
	</radialGradient>
	<path fill="url(#SVGID_57_)" d="M122.3,90.1c-0.7,3.7-1.8,7.3-3.2,10.8c1.7,1.1,2.8,2.2,3.4,3.3c1.6-3.4,2.8-6.9,3.5-10.5
		C125.3,92.4,124.1,91.2,122.3,90.1z"/>
	<radialGradient id="SVGID_58_" cx="73.8722" cy="106.1622" r="81.615" gradientUnits="userSpaceOnUse">
		<stop  offset="0.2528" style="stop-color:#F10F83"/>
		<stop  offset="1" style="stop-color:#00A9DE"/>
	</radialGradient>
	<path fill="url(#SVGID_58_)" d="M120.4,89c-2.2-1.1-4.8-2.1-7.9-3c-0.5,3.7-1.4,7.5-2.5,11.1c2.8,0.8,5.3,1.7,7.3,2.8
		C118.7,96.3,119.7,92.7,120.4,89z"/>
	<radialGradient id="SVGID_59_" cx="73.8763" cy="106.161" r="81.6069" gradientUnits="userSpaceOnUse">
		<stop  offset="0.2528" style="stop-color:#F10F83"/>
		<stop  offset="1" style="stop-color:#00A9DE"/>
	</radialGradient>
	<path fill="url(#SVGID_59_)" d="M110,85.4c-3.2-0.8-6.8-1.5-10.6-2c-0.3,3.8-0.9,7.6-1.6,11.3c3.5,0.5,6.8,1.1,9.8,1.9
		C108.7,92.8,109.5,89.1,110,85.4z"/>
	<radialGradient id="SVGID_60_" cx="73.876" cy="106.1617" r="81.6067" gradientUnits="userSpaceOnUse">
		<stop  offset="0.2528" style="stop-color:#F10F83"/>
		<stop  offset="1" style="stop-color:#00A9DE"/>
	</radialGradient>
	<path fill="url(#SVGID_60_)" d="M95,94.2c0.6-3.7,1.1-7.5,1.4-11.3c-3.9-0.5-8.1-0.8-12.3-0.9c-0.1,3.8-0.3,7.6-0.5,11.4
		C87.5,93.5,91.3,93.8,95,94.2z"/>
	<radialGradient id="SVGID_61_" cx="73.8749" cy="106.1626" r="81.6109" gradientUnits="userSpaceOnUse">
		<stop  offset="0.2528" style="stop-color:#F10F83"/>
		<stop  offset="1" style="stop-color:#00A9DE"/>
	</radialGradient>
	<path fill="url(#SVGID_61_)" d="M80.7,81.9c-4.3-0.1-8.6,0-12.9,0.2c0.1,3.8,0.4,7.6,0.7,11.4c4-0.2,8-0.3,12-0.2
		C80.6,89.5,80.6,85.7,80.7,81.9z"/>
	<radialGradient id="SVGID_62_" cx="73.8751" cy="106.1601" r="81.5988" gradientUnits="userSpaceOnUse">
		<stop  offset="0.2528" style="stop-color:#F10F83"/>
		<stop  offset="1" style="stop-color:#00A9DE"/>
	</radialGradient>
	<path fill="url(#SVGID_62_)" d="M56.2,83.2c-1.4,0.2-2.8,0.4-4.1,0.6c0.4,3.8,1,7.5,1.8,11.2c1.2-0.2,2.5-0.4,3.8-0.6
		c2.5-0.3,5.1-0.6,7.6-0.8c-0.4-3.7-0.7-7.5-0.9-11.3C61.6,82.6,58.9,82.9,56.2,83.2z"/>
	<radialGradient id="SVGID_63_" cx="73.8757" cy="106.162" r="81.6095" gradientUnits="userSpaceOnUse">
		<stop  offset="0.2528" style="stop-color:#F10F83"/>
		<stop  offset="1" style="stop-color:#00A9DE"/>
	</radialGradient>
	<path fill="url(#SVGID_63_)" d="M31.8,90.7c0.7,3.7,1.8,7.3,3.3,10.7c1.3-1,3.1-2,5.4-2.9c-1.3-3.6-2.3-7.2-2.9-11
		C35.2,88.6,33.2,89.6,31.8,90.7z"/>
	<radialGradient id="SVGID_64_" cx="73.8804" cy="106.1612" r="81.6177" gradientUnits="userSpaceOnUse">
		<stop  offset="0.2528" style="stop-color:#F10F83"/>
		<stop  offset="1" style="stop-color:#00A9DE"/>
	</radialGradient>
	<path fill="url(#SVGID_64_)" d="M28.9,95.1c0.7,3.6,1.9,7.1,3.5,10.4c0.1-1.1,0.6-2.2,1.7-3.2c-1.5-3.4-2.7-7-3.4-10.7
		C29.6,92.8,29,93.9,28.9,95.1z"/>
	<radialGradient id="SVGID_65_" cx="73.8764" cy="106.1612" r="81.6063" gradientUnits="userSpaceOnUse">
		<stop  offset="0.2528" style="stop-color:#F10F83"/>
		<stop  offset="1" style="stop-color:#00A9DE"/>
	</radialGradient>
	<path fill="url(#SVGID_65_)" d="M122.9,74.9c0.2,1.8,0.3,3.7,0.3,5.5c0,1.9-0.1,3.8-0.3,5.6c1.8,1.2,3.1,2.4,3.7,3.6
		c0.2-1.8,0.3-3.7,0.3-5.6c0-1.9-0.1-3.7-0.3-5.6C125.9,77.2,124.7,76,122.9,74.9z"/>
	<radialGradient id="SVGID_66_" cx="73.8767" cy="106.1635" r="81.6089" gradientUnits="userSpaceOnUse">
		<stop  offset="0.2528" style="stop-color:#F10F83"/>
		<stop  offset="1" style="stop-color:#00A9DE"/>
	</radialGradient>
	<path fill="url(#SVGID_66_)" d="M121.3,79.3c0-1.9-0.1-3.7-0.3-5.5c-2.2-1.1-4.9-2.1-8-3c0.2,1.8,0.2,3.6,0.2,5.5
		c0,1.9-0.1,3.8-0.2,5.6c3.1,0.9,5.8,1.9,8,3C121.2,83.1,121.3,81.2,121.3,79.3z"/>
	<radialGradient id="SVGID_67_" cx="73.8755" cy="106.1617" r="81.6115" gradientUnits="userSpaceOnUse">
		<stop  offset="0.2528" style="stop-color:#F10F83"/>
		<stop  offset="1" style="stop-color:#00A9DE"/>
	</radialGradient>
	<path fill="url(#SVGID_67_)" d="M99.9,73.5c0,1.9-0.1,3.8-0.2,5.7c3.9,0.5,7.5,1.2,10.7,2c0.2-1.9,0.2-3.8,0.2-5.7
		c0-1.9-0.1-3.7-0.2-5.5c-3.3-0.8-6.9-1.5-10.7-2C99.8,69.8,99.9,71.7,99.9,73.5z"/>
	<radialGradient id="SVGID_68_" cx="73.8736" cy="106.1602" r="81.6103" gradientUnits="userSpaceOnUse">
		<stop  offset="0.2528" style="stop-color:#F10F83"/>
		<stop  offset="1" style="stop-color:#00A9DE"/>
	</radialGradient>
	<path fill="url(#SVGID_68_)" d="M84.2,72.2c0,1.9,0,3.8-0.1,5.7c4.3,0.2,8.5,0.5,12.4,1c0.1-1.9,0.1-3.8,0.1-5.7
		c0-1.9,0-3.7-0.1-5.5c-4-0.5-8.2-0.8-12.4-1C84.2,68.5,84.2,70.3,84.2,72.2z"/>
	<radialGradient id="SVGID_69_" cx="73.8752" cy="106.1651" r="81.614" gradientUnits="userSpaceOnUse">
		<stop  offset="0.2528" style="stop-color:#F10F83"/>
		<stop  offset="1" style="stop-color:#00A9DE"/>
	</radialGradient>
	<path fill="url(#SVGID_69_)" d="M67.7,66.8c0,1.8-0.1,3.6-0.1,5.5c0,1.9,0,3.8,0.1,5.7c4.3-0.2,8.7-0.3,13.1-0.2c0-1.9,0-3.8,0-5.7
		c0-1.9,0-3.7,0-5.5C76.4,66.5,72,66.6,67.7,66.8z"/>
	<radialGradient id="SVGID_70_" cx="73.871" cy="106.1653" r="81.6164" gradientUnits="userSpaceOnUse">
		<stop  offset="0.2528" style="stop-color:#F10F83"/>
		<stop  offset="1" style="stop-color:#00A9DE"/>
	</radialGradient>
	<path fill="url(#SVGID_70_)" d="M112.5,66.9c3,0.9,5.7,1.9,7.9,3c-0.7-3.5-1.7-6.8-3.1-9.9c-2-1-4.5-2-7.3-2.8
		C111.2,60.2,112,63.5,112.5,66.9z"/>
	<radialGradient id="SVGID_71_" cx="73.8748" cy="106.1613" r="81.6054" gradientUnits="userSpaceOnUse">
		<stop  offset="0.2528" style="stop-color:#F10F83"/>
		<stop  offset="1" style="stop-color:#00A9DE"/>
	</radialGradient>
	<path fill="url(#SVGID_71_)" d="M37.6,68.5c0.6-3.5,1.6-6.8,2.9-9.8c-2.3,0.9-4.1,1.9-5.4,2.9c-1.5,3.2-2.6,6.5-3.3,10.1
		C33.2,70.5,35.2,69.5,37.6,68.5z"/>
	<radialGradient id="SVGID_72_" cx="73.874" cy="106.1598" r="81.6052" gradientUnits="userSpaceOnUse">
		<stop  offset="0.2528" style="stop-color:#F10F83"/>
		<stop  offset="1" style="stop-color:#00A9DE"/>
	</radialGradient>
	<path fill="url(#SVGID_72_)" d="M34.2,62.4c-0.6,0.6-1,1.2-1.3,1.7L32,66c-0.6,1.3-0.6,1.3-1.5,3.8c-0.4,1.3-0.4,1.3-1.2,3.9
		L29,75.4c0.2-1,0.8-2,1.8-2.9C31.5,69,32.7,65.6,34.2,62.4z"/>
	<radialGradient id="SVGID_73_" cx="73.8759" cy="106.1713" r="81.6219" gradientUnits="userSpaceOnUse">
		<stop  offset="0.2528" style="stop-color:#F10F83"/>
		<stop  offset="1" style="stop-color:#00A9DE"/>
	</radialGradient>
	<path fill="url(#SVGID_73_)" d="M80,43.3c-3.2-0.1-6.4,0-9.7,0.2c-0.5,2-1,4.4-1.4,7.1c1.3-0.1,2.6-0.1,3.9-0.1
		c2.5-1,5-1.9,7.5-2.7C80.2,46.1,80.1,44.6,80,43.3z"/>
	<radialGradient id="SVGID_74_" cx="73.8757" cy="106.1715" r="81.6228" gradientUnits="userSpaceOnUse">
		<stop  offset="0.2528" style="stop-color:#F10F83"/>
		<stop  offset="1" style="stop-color:#00A9DE"/>
	</radialGradient>
	<path fill="url(#SVGID_74_)" d="M43.9,54.8c2.4-0.8,5.2-1.6,8.4-2.2c1.1-2.8,2.4-5.2,4-7.4c-2.7,0.5-5.1,1.2-7.1,1.9
		C47.2,49.3,45.4,51.9,43.9,54.8z"/>
	<radialGradient id="SVGID_75_" cx="73.8754" cy="106.1588" r="81.6046" gradientUnits="userSpaceOnUse">
		<stop  offset="0.2528" style="stop-color:#F10F83"/>
		<stop  offset="1" style="stop-color:#00A9DE"/>
	</radialGradient>
	<path fill="url(#SVGID_75_)" d="M47.7,47.6c-1.8,0.7-3.3,1.5-4.4,2.4c-2.5,2.5-4.6,5.3-6.4,8.3c1.3-1,3-1.9,5.2-2.8
		C43.7,52.6,45.5,49.9,47.7,47.6z"/>
	<radialGradient id="SVGID_76_" cx="73.8745" cy="106.1418" r="81.5855" gradientUnits="userSpaceOnUse">
		<stop  offset="0.2528" style="stop-color:#F10F83"/>
		<stop  offset="1" style="stop-color:#00A9DE"/>
	</radialGradient>
	<path fill="url(#SVGID_76_)" d="M91.4,40.9c-1.1-1.8-2.3-3.1-3.6-4.1c-1.9-0.2-4-0.4-6.1-0.5c0.4,0.9,0.8,2.2,1.2,3.9
		C85.9,40.4,88.7,40.6,91.4,40.9z"/>
	<radialGradient id="SVGID_77_" cx="73.8735" cy="106.1802" r="81.624" gradientUnits="userSpaceOnUse">
		<stop  offset="0.2528" style="stop-color:#F10F83"/>
		<stop  offset="1" style="stop-color:#00A9DE"/>
	</radialGradient>
	<path fill="url(#SVGID_77_)" d="M89.5,25.9c-0.9-1.4-1.8-2.5-2.9-3.3c-1.6-0.2-3.2-0.3-4.9-0.4c0.4,0.7,0.7,1.7,1,3.1
		C85,25.5,87.3,25.6,89.5,25.9z"/>
	<radialGradient id="SVGID_78_" cx="73.8744" cy="106.1744" r="81.6211" gradientUnits="userSpaceOnUse">
		<stop  offset="0.2528" style="stop-color:#F10F83"/>
		<stop  offset="1" style="stop-color:#00A9DE"/>
	</radialGradient>
	<path fill="url(#SVGID_78_)" d="M72.1,35.9c0.8-1.7,1.6-3.1,2.5-4c-1.4,0.1-2.8,0.2-4.1,0.4c-0.7,0.1-1.4,0.2-2,0.3
		c-1.7,1-3.4,2.4-4.9,4.3c0.9-0.2,1.9-0.3,2.8-0.4C68.3,36.3,70.2,36.1,72.1,35.9z"/>
	<radialGradient id="SVGID_79_" cx="73.8747" cy="106.1749" r="81.6241" gradientUnits="userSpaceOnUse">
		<stop  offset="0.2528" style="stop-color:#F10F83"/>
		<stop  offset="1" style="stop-color:#00A9DE"/>
	</radialGradient>
	<path fill="url(#SVGID_79_)" d="M73.1,25.4c0.5-1.1,1-1.9,1.6-2.5c-0.9,0.1-1.7,0.2-2.6,0.3c-0.4,0.1-0.9,0.1-1.3,0.2
		c-1.1,0.6-2.1,1.5-3.1,2.7c0.6-0.1,1.2-0.2,1.8-0.3C70.6,25.6,71.8,25.5,73.1,25.4z"/>
	<radialGradient id="SVGID_80_" cx="73.8753" cy="106.1658" r="81.6127" gradientUnits="userSpaceOnUse">
		<stop  offset="0.2528" style="stop-color:#F10F83"/>
		<stop  offset="1" style="stop-color:#00A9DE"/>
	</radialGradient>
	<path fill="url(#SVGID_80_)" d="M76.4,14.1c1.2,0.2,2.1,0.6,2.8,1c-0.3-0.8-0.5-1.7-0.8-2.5c-0.2-0.4-0.3-0.8-0.5-1.2
		c-0.9-0.9-2-1.7-3.3-2.4c0.2,0.5,0.4,1.1,0.7,1.7C75.6,11.8,76,12.9,76.4,14.1z"/>
	<radialGradient id="SVGID_81_" cx="73.8757" cy="106.1541" r="81.6004" gradientUnits="userSpaceOnUse">
		<stop  offset="0.2528" style="stop-color:#F10F83"/>
		<stop  offset="1" style="stop-color:#00A9DE"/>
	</radialGradient>
	<path fill="url(#SVGID_81_)" d="M60.3,34.1c-1.8,0.4-3.4,0.8-4.7,1.2c-2.6,1.2-5,2.8-7.3,4.8c1.9-0.6,4-1.2,6.5-1.7
		C56.5,36.5,58.4,35.1,60.3,34.1z"/>
	<radialGradient id="SVGID_82_" cx="73.8759" cy="106.159" r="81.6048" gradientUnits="userSpaceOnUse">
		<stop  offset="0.2528" style="stop-color:#F10F83"/>
		<stop  offset="1" style="stop-color:#00A9DE"/>
	</radialGradient>
	<path fill="url(#SVGID_82_)" d="M38.9,76.6c0,0.2,0,0.3,0,0.5c0,1.9,0.1,3.8,0.2,5.6c2.7-0.9,5.9-1.8,9.6-2.5
		c-0.1-1.9-0.2-3.8-0.2-5.7c0-1.4,0.1-2.7,0.1-4.1C45.2,72.5,42,74.6,38.9,76.6z"/>
	<radialGradient id="SVGID_83_" cx="73.8773" cy="106.1598" r="81.6084" gradientUnits="userSpaceOnUse">
		<stop  offset="0.2528" style="stop-color:#F10F83"/>
		<stop  offset="1" style="stop-color:#00A9DE"/>
	</radialGradient>
	<path fill="url(#SVGID_83_)" d="M30.9,82.4c0,1.4,0.1,2.9,0.3,4.3c1.5-1.1,3.4-2.2,5.9-3.2c-0.2-1.8-0.3-3.6-0.3-5.5
		C34.7,79.5,32.8,81,30.9,82.4z"/>
	<radialGradient id="SVGID_84_" cx="73.8711" cy="106.1618" r="81.6017" gradientUnits="userSpaceOnUse">
		<stop  offset="0.2528" style="stop-color:#F10F83"/>
		<stop  offset="1" style="stop-color:#00A9DE"/>
	</radialGradient>
	<path fill="url(#SVGID_84_)" d="M27.9,84.8c0,0.3,0,0.5,0,0.8c0,1.9,0.1,3.7,0.3,5.6c0.1-1.2,0.7-2.4,1.9-3.5
		c-0.2-1.4-0.2-2.9-0.3-4.4C29.2,83.8,28.6,84.3,27.9,84.8z"/>
	<radialGradient id="SVGID_85_" cx="73.8772" cy="106.1614" r="81.6048" gradientUnits="userSpaceOnUse">
		<stop  offset="0.2528" style="stop-color:#F10F83"/>
		<stop  offset="1" style="stop-color:#00A9DE"/>
	</radialGradient>
	<path fill="url(#SVGID_85_)" d="M85.8,53.6c-0.7,0.2-1.4,0.5-2.1,0.7c0.2,2.7,0.3,5.5,0.4,8.6c4.2,0.2,8.4,0.5,12.3,0.9
		c-0.3-3.4-0.7-6.6-1.3-9.5C92.1,54,89,53.8,85.8,53.6z"/>
	<radialGradient id="SVGID_86_" cx="73.8742" cy="106.1629" r="81.6087" gradientUnits="userSpaceOnUse">
		<stop  offset="0.2528" style="stop-color:#F10F83"/>
		<stop  offset="1" style="stop-color:#00A9DE"/>
	</radialGradient>
	<path fill="url(#SVGID_86_)" d="M64.6,53.9c-2.3,0.2-4.6,0.4-6.9,0.7c-1.3,0.2-2.6,0.4-3.8,0.6c-0.4,1.4-0.8,3-1.1,4.5
		c3-1.6,6.1-3.2,9.3-4.7C63,54.6,63.8,54.3,64.6,53.9z"/>
	<radialGradient id="SVGID_87_" cx="73.878" cy="106.1597" r="81.604" gradientUnits="userSpaceOnUse">
		<stop  offset="0.2528" style="stop-color:#F10F83"/>
		<stop  offset="1" style="stop-color:#00A9DE"/>
	</radialGradient>
	<path fill="url(#SVGID_87_)" d="M120.4,60.5l-1-1.5c-0.8-1.2-0.8-1.2-2.4-3.4c-0.9-1.1-0.9-1.2-2.7-3.2c-0.4-0.5-1-1.1-1.5-1.6
		c-0.5-0.5-1-0.9-1.7-1.4c2.4,2.4,4.5,5.2,6.2,8.2C118.8,58.6,119.8,59.5,120.4,60.5z"/>
	<radialGradient id="SVGID_88_" cx="73.8718" cy="106.1574" r="81.607" gradientUnits="userSpaceOnUse">
		<stop  offset="0.2528" style="stop-color:#F10F83"/>
		<stop  offset="1" style="stop-color:#00A9DE"/>
	</radialGradient>
	<path fill="url(#SVGID_88_)" d="M96.6,50.3c0.1,0.4,0.3,0.9,0.4,1.3c3.4,0.5,6.6,1.1,9.4,1.8c-0.8-1.7-1.6-3.3-2.6-4.8
		C101.5,49.1,99.1,49.7,96.6,50.3z"/>
	<radialGradient id="SVGID_89_" cx="73.8779" cy="106.1728" r="81.622" gradientUnits="userSpaceOnUse">
		<stop  offset="0.2528" style="stop-color:#F10F83"/>
		<stop  offset="1" style="stop-color:#00A9DE"/>
	</radialGradient>
	<path fill="url(#SVGID_89_)" d="M100.4,41.7c-0.7-0.3-1.5-0.7-2.2-1c-1-0.4-2.1-0.7-3.3-1c1.7,0.7,3.3,1.7,4.9,2.8
		c0.5-0.1,1.1-0.2,1.6-0.3C101.1,42.1,100.7,41.9,100.4,41.7z"/>
	<path fill="#00A9DE" d="M39.4,118c-15.5,2.5-27,0.8-30.2-5.5c4,8,16.8,10.9,33.6,8.9C41.4,120.2,40.3,119.1,39.4,118z"/>
	<path fill="#00A9DE" d="M142.8,50.7c0-1.7-1.4-3.1-3.1-3.1c-0.5,0-0.9,0.1-1.3,0.3c-5.8-6.8-19.6-8.6-37-5.7
		c-0.5,0.1-1.1,0.2-1.6,0.3c-6.1,1.1-12.7,2.9-19.5,5.2c-2.5,0.8-5,1.7-7.5,2.7c-2.7,1.1-5.4,2.2-8.2,3.4c-0.8,0.4-1.7,0.8-2.5,1.1
		c-3.2,1.5-6.3,3.1-9.3,4.7C22,76.5,2.7,98.9,9,112.2c0,0,0,0,0,0c-5.6-12,19.2-35.4,55.4-52.4c33.2-15.6,64.4-20.3,73.7-11.8
		c-0.9,0.5-1.5,1.5-1.5,2.7c0,1.7,1.4,3.1,3.1,3.1c0.4,0,0.8-0.1,1.2-0.2c0.5,5.3-3.5,12.2-10.8,19.6c0.4,1.4,0.6,2.7,0.7,4
		c7.7-8.7,11.6-17.1,10.3-23.7C142.1,53,142.8,51.9,142.8,50.7z"/>
</g>
</svg>
