<?xml version="1.0" encoding="utf-8"?>
<!-- Generator: Adobe Illustrator 16.0.0, SVG Export Plug-In . SVG Version: 6.00 Build 0)  -->
<!DOCTYPE svg PUBLIC "-//W3C//DTD SVG 1.1//EN" "http://www.w3.org/Graphics/SVG/1.1/DTD/svg11.dtd">
<svg version="1.1" id="Layer_1" xmlns="http://www.w3.org/2000/svg" xmlns:xlink="http://www.w3.org/1999/xlink" x="0px" y="0px"
	 width="100px" height="100px" viewBox="0 0 100 100" enable-background="new 0 0 100 100" xml:space="preserve">
<g>
	<path fill="#1B75BB" d="M45.509,91.846l11.76-18.452C39.173,36.891,74.81,1.93,89.61,23.505
		C82.649-1.254,20.254,22.042,45.509,91.846z"/>
	<path fill="#1B75BB" d="M30.79,68.751c-3.91-27.274,15.076-51.307,26-50.866c-8.589-2.539-30.467,6.289-35.721,35.6L30.79,68.751z"
		/>
	<path fill="#231F20" d="M38.327,36.915c-4.381,8.448-7.25,19.481-5.522,31.543l0.642,4.456l7.714,12.114
		c-6.381-22.21-3.34-38.014,1.116-48.114H38.327z"/>
	<path fill="#231F20" d="M24.375,36.915H10.514L19.487,51C20.631,45.624,22.318,40.953,24.375,36.915z"/>
	<path fill="#231F20" d="M57.426,36.915c-4.477,10.671-4.121,23.083,1.144,34.435l21.935-34.435H57.426z"/>
</g>
</svg>
