<?xml version="1.0" encoding="utf-8"?>
<!-- Generator: Adobe Illustrator 16.0.0, SVG Export Plug-In . SVG Version: 6.00 Build 0)  -->
<!DOCTYPE svg PUBLIC "-//W3C//DTD SVG 1.1//EN" "http://www.w3.org/Graphics/SVG/1.1/DTD/svg11.dtd">
<svg version="1.1" id="Layer_1" xmlns="http://www.w3.org/2000/svg" xmlns:xlink="http://www.w3.org/1999/xlink" x="0px" y="0px"
	 width="100px" height="100px" viewBox="0 0 100 100" enable-background="new 0 0 100 100" xml:space="preserve">
<g>
	<g>
		<path fill="#B0DABA" d="M85.81,65.021c-0.639,0.012-9.73,0.497-16.749,1.136c0.011-0.628,0.042-0.923-0.011-1.533
			c6.996-0.795,15.98-1.824,16.605-1.943c1.032-0.199,1.712-1.171,1.521-2.176c-0.192-1.006-1.185-1.656-2.218-1.461
			c-0.62,0.119-9.276,2.46-16.058,4.302c-0.096-0.617-0.224-1.225-0.381-1.824c6.733-1.991,15.291-4.533,15.882-4.757
			c0.982-0.373,1.482-1.453,1.121-2.405c-0.365-0.955-1.455-1.429-2.438-1.053c-0.589,0.224-8.598,3.982-14.938,6.964
			c-0.201-0.591-0.434-1.171-0.692-1.733c6.265-3.12,14.146-7.058,14.687-7.38c0.902-0.54,1.209-1.688,0.685-2.565
			c-0.522-0.875-1.68-1.151-2.583-0.613c-0.535,0.32-7.681,5.349-13.387,9.371c-0.301-0.548-0.63-1.077-0.983-1.588
			c5.607-4.146,12.595-9.327,13.068-9.735c0.794-0.688,0.897-1.869,0.229-2.642c-0.668-0.776-1.853-0.845-2.648-0.157
			c-0.472,0.406-6.555,6.516-11.457,11.456c-0.396-0.487-0.813-0.953-1.251-1.396c4.787-5.041,10.692-11.278,11.086-11.756
			c0.661-0.814,0.557-1.999-0.236-2.645c-0.791-0.643-1.971-0.508-2.636,0.307c-0.39,0.477-5.257,7.463-9.217,13.156
			c-0.472-0.409-0.963-0.793-1.477-1.152c3.826-5.778,8.501-12.854,8.803-13.394c0.511-0.916,0.2-2.065-0.69-2.562
			c-0.892-0.498-2.03-0.158-2.541,0.759c-0.301,0.536-3.838,8.167-6.739,14.44c-0.535-0.317-1.091-0.61-1.662-0.875
			c2.756-6.331,6.094-14.026,6.295-14.604c0.346-0.994-0.16-2.067-1.124-2.404c-0.966-0.337-2.026,0.196-2.371,1.19
			c-0.202,0.574-2.339,8.62-4.101,15.276c-0.582-0.216-1.179-0.403-1.791-0.561c1.609-6.692,3.539-14.774,3.636-15.373
			c0.169-1.039-0.514-2.01-1.521-2.173c-1.011-0.164-1.963,0.546-2.132,1.584c-0.096,0.596-0.798,8.816-1.374,15.663
			c-0.61-0.107-1.235-0.182-1.867-0.229c0.423-6.855,0.917-15.086,0.909-15.694c-0.015-1.049-0.856-1.888-1.878-1.875
			c-1.024,0.017-1.836,0.878-1.822,1.93c0.008,0.604,0.739,8.766,1.358,15.594c-0.632,0.005-1.259,0.042-1.877,0.108
			c-0.776-6.812-1.709-14.957-1.825-15.547c-0.196-1.036-1.171-1.715-2.176-1.521c-1.002,0.19-1.657,1.185-1.458,2.214
			c0.113,0.594,2.239,8.465,4.031,15.07c-0.621,0.119-1.228,0.268-1.828,0.447c-1.943-6.566-4.268-14.396-4.483-14.959
			c-0.375-0.98-1.453-1.482-2.406-1.121c-0.956,0.364-1.427,1.458-1.052,2.438c0.214,0.563,3.665,7.926,6.578,14.116
			c-0.588,0.227-1.163,0.486-1.717,0.773c-3.054-6.129-6.703-13.427-7.012-13.946c-0.538-0.9-1.686-1.207-2.564-0.685
			c-0.876,0.524-1.153,1.682-0.612,2.582c0.308,0.519,4.987,7.173,8.929,12.762c-0.536,0.331-1.049,0.69-1.546,1.073
			c-4.074-5.508-8.942-12.074-9.335-12.529c-0.687-0.795-1.871-0.897-2.645-0.229c-0.772,0.668-0.843,1.853-0.156,2.648
			c0.395,0.456,6.174,6.212,11.03,11.038c-0.465,0.42-0.907,0.864-1.327,1.331c-4.972-4.721-10.929-10.362-11.399-10.746
			c-0.813-0.663-1.998-0.558-2.643,0.235c-0.645,0.79-0.508,1.971,0.306,2.633c0.47,0.384,7.191,5.07,12.82,8.985
			c-0.38,0.497-0.736,1.014-1.063,1.546c-5.729-3.794-12.615-8.341-13.145-8.636c-0.918-0.514-2.065-0.205-2.562,0.687
			c-0.5,0.895-0.159,2.032,0.759,2.543c0.53,0.295,8.012,3.767,14.25,6.65c-0.284,0.557-0.539,1.128-0.766,1.715
			c-6.316-2.749-13.947-6.057-14.523-6.258c-0.993-0.346-2.069,0.157-2.405,1.124c-0.334,0.964,0.198,2.026,1.19,2.37
			c0.576,0.199,8.621,2.337,15.281,4.101c-0.178,0.594-0.326,1.2-0.443,1.82c-6.719-1.616-14.89-3.57-15.495-3.667
			c-1.039-0.169-2.01,0.517-2.173,1.523c-0.163,1.008,0.545,1.963,1.583,2.13c0.604,0.099,8.99,0.813,15.877,1.394
			c-0.061,0.538-0.099,1.085-0.112,1.637c0,0.077,0,0.155,0,0.232c-6.92-0.425-15.405-0.938-16.022-0.93
			c-1.05,0.016-1.89,0.857-1.875,1.88c0.015,1.021,0.878,1.836,1.93,1.821c0.616-0.008,68.583-0.014,69.225-0.024
			c1.052-0.014,1.888-0.855,1.874-1.877C87.722,65.822,86.858,65.008,85.81,65.021z"/>
	</g>
	<g>
		<g>
			<path fill="#FFFFFF" d="M47.851,58.142c1.281,0.005,2.361,0.91,3.526,1.094c1.159,0.127,1.659-0.432,1.662-0.378
				c0.014-0.034-0.682,0.173-1.494-0.211c-0.756-0.309-1.767-1.728-3.625-1.725c-2.077,0-2.416,0.947-3.169,1.461
				c-0.884-0.219-1.381-1.086-3.481-0.266c-1.729,0.674-2.194,2.327-2.796,2.88c-0.624,0.643-1.35,0.692-1.325,0.72
				c-0.019-0.049,0.648,0.296,1.687-0.227c1.032-0.577,1.728-1.803,2.926-2.252c1.01-0.525,2.358-0.009,3.164,0.112
				c-0.011-0.038-0.017-0.077-0.022-0.115c0.011,0.035,0.02,0.074,0.022,0.115C45.64,58.956,46.722,58.003,47.851,58.142z"/>
		</g>
		<g>
			<path fill="#FFFFFF" d="M57.918,65c-0.48-0.325-0.975-1.466-2.271-1.739c-1.446-0.304-1.824,0.304-2.424,0.549
				c-0.582-0.282-0.8-0.961-2.386-0.7c-1.306,0.215-1.872,1.297-2.374,1.592c-0.534,0.356-1.044,0.282-1.03,0.304
				c-0.005-0.035,0.406,0.304,1.207,0.095c0.804-0.249,1.469-1,2.372-1.138c0.784-0.216,1.646,0.345,2.189,0.547
				c0-0.028,0-0.056,0.003-0.084c0,0.028,0,0.059-0.003,0.084c0.555-0.169,1.449-0.671,2.217-0.406
				c0.892,0.191,1.511,0.982,2.294,1.281c0.79,0.263,1.221-0.052,1.215-0.014C58.941,65.348,58.426,65.389,57.918,65z"/>
		</g>
		<g>
			<path fill="#FFFFFF" d="M59.082,56.444c-0.355-0.46-0.475-1.695-1.617-2.355c-1.284-0.74-1.83-0.276-2.477-0.229
				c-0.467-0.45-0.467-1.16-2.055-1.405c-1.306-0.199-2.184,0.657-2.75,0.782c-0.616,0.173-1.08-0.056-1.074-0.028
				c0.005-0.038,0.293,0.414,1.121,0.46c0.841,0.014,1.707-0.496,2.607-0.347c0.812,0.038,1.457,0.837,1.91,1.198
				c0.583,0.011,1.591-0.191,2.236,0.298c0.789,0.461,1.129,1.406,1.786,1.931c0.669,0.49,1.174,0.328,1.157,0.357
				C59.949,57.092,59.444,56.975,59.082,56.444z"/>
		</g>
	</g>
	<g>
		<g>
			<g>
				<path fill="#250F0E" d="M89.782,67.638c-0.03,0.005,0.011-1.732-0.413-4.818c-0.439-3.07-1.417-7.527-3.874-12.5
					c-2.436-4.942-6.4-10.415-12.257-14.758c-5.787-4.354-13.557-7.43-21.938-7.41c-8.385-0.02-16.153,3.057-21.941,7.408
					c-5.856,4.346-9.821,9.815-12.257,14.76c-2.458,4.972-3.435,9.429-3.874,12.5c-0.424,3.086-0.384,4.823-0.414,4.818
					c0.03,0.002-0.101-1.729,0.189-4.846c0.308-3.102,1.109-7.644,3.444-12.785c2.315-5.104,6.215-10.828,12.173-15.422
					c5.876-4.597,13.943-7.905,22.679-7.883c8.735-0.022,16.8,3.286,22.678,7.885c5.956,4.592,9.857,10.315,12.174,15.423
					c2.334,5.138,3.134,9.68,3.441,12.781C89.884,65.908,89.752,67.64,89.782,67.638z"/>
			</g>
		</g>
	</g>
	<g>
		<g>
			<g>
				<path fill="#231F20" d="M93.73,71.43c0,0-19.271,0.967-43.047,0.967c-23.777,0-43.051-0.967-43.051-0.967
					s19.273-0.966,43.051-0.966C74.459,70.464,93.73,71.43,93.73,71.43z"/>
			</g>
		</g>
	</g>
	<g>
		<g>
			<g>
				<path fill="#231F20" d="M85.837,73.898c0,0-15.738,0.724-35.153,0.724c-19.417,0-35.157-0.724-35.157-0.724
					s15.739-0.726,35.157-0.726C70.099,73.173,85.837,73.898,85.837,73.898z"/>
			</g>
		</g>
	</g>
</g>
</svg>
